HIERARCHY
ROOT SpineBase
{
  OFFSET 0.000000 0.000000 0.000000
  CHANNELS 6 Xposition Yposition Zposition Zrotation Xrotation Yrotation
  JOINT SpineMid
  {
    OFFSET 0.000000 31.299615 0.000000
    CHANNELS 3 Zrotation Xrotation Yrotation
    JOINT SpineShoulder
    {
      OFFSET 0.000844 23.202915 -0.798674
      CHANNELS 3 Zrotation Xrotation Yrotation
      JOINT Neck
      {
        OFFSET 0.003434 7.669158 -0.573576
        CHANNELS 3 Zrotation Xrotation Yrotation
        JOINT Head
        {
          OFFSET -4.560006 12.651757 -0.298490
          CHANNELS 3 Zrotation Xrotation Yrotation
          End Site
          {
            OFFSET 0 0 0
          }
        }
      }
      JOINT ShoulderLeft
      {
        OFFSET -15.851860 -3.207765 9.142036
        CHANNELS 3 Zrotation Xrotation Yrotation
        JOINT ElbowLeft
        {
          OFFSET -1.777346 -23.563434 1.067874
          CHANNELS 3 Zrotation Xrotation Yrotation
          JOINT WristLeft
          {
            OFFSET 0.829667 -23.520776 -4.189689
            CHANNELS 3 Zrotation Xrotation Yrotation
            JOINT HandLeft
            {
              OFFSET 0.388498 -7.478291 -1.853606
              CHANNELS 3 Zrotation Xrotation Yrotation
              JOINT HandTipLeft
              {
                OFFSET 1.856322 -7.568199 -1.330540
                CHANNELS 3 Zrotation Xrotation Yrotation
                End Site
                {
                  OFFSET 0 0 0
                }
              }
              JOINT ThumbLeft
              {
                OFFSET 2.378785 0.636925 -4.949649
                CHANNELS 3 Zrotation Xrotation Yrotation
                End Site
                {
                  OFFSET 0 0 0
                }
              }
            }
          }
        }
      }
      JOINT ShoulderRight
      {
        OFFSET 13.394175 -2.228738 -10.068170
        CHANNELS 3 Zrotation Xrotation Yrotation
        JOINT ElbowRight
        {
          OFFSET 6.887315 -22.775125 -2.289517
          CHANNELS 3 Zrotation Xrotation Yrotation
          JOINT WristRight
          {
            OFFSET 1.136667 -23.092760 -4.886609
            CHANNELS 3 Zrotation Xrotation Yrotation
            JOINT HandRight
            {
              OFFSET -1.019021 -7.783676 -0.497125
              CHANNELS 3 Zrotation Xrotation Yrotation
              JOINT HandTipRight
              {
                OFFSET 0.517434 -6.474655 -0.734856
                CHANNELS 3 Zrotation Xrotation Yrotation
                End Site
                {
                  OFFSET 0 0 0
                }
              }
              JOINT ThumbRight
              {
                OFFSET -3.474003 1.371685 0.688870
                CHANNELS 3 Zrotation Xrotation Yrotation
                End Site
                {
                  OFFSET 0 0 0
                }
              }
            }
          }
        }
      }
    }
  }
  JOINT HipLeft
  {
    OFFSET -6.649977 0.213666 0.033229
    CHANNELS 3 Zrotation Xrotation Yrotation
    JOINT KneeLeft
    {
      OFFSET 4.913369 -37.940394 4.245437
      CHANNELS 3 Zrotation Xrotation Yrotation
      JOINT AnkleLeft
      {
        OFFSET 7.823957 -33.110565 4.920474
        CHANNELS 3 Zrotation Xrotation Yrotation
        JOINT FootLeft
        {
          OFFSET 2.515705 -5.348756 -5.593656
          CHANNELS 3 Zrotation Xrotation Yrotation
          End Site
          {
            OFFSET 0 0 0
          }
        }
      }
    }
  }
  JOINT HipRight
  {
    OFFSET 6.571052 1.599068 -7.054555
    CHANNELS 3 Zrotation Xrotation Yrotation
    JOINT KneeRight
    {
      OFFSET 6.894388 -32.756181 -1.027628
      CHANNELS 3 Zrotation Xrotation Yrotation
      JOINT AnkleRight
      {
        OFFSET 3.817544 -35.025038 6.802380
        CHANNELS 3 Zrotation Xrotation Yrotation
        JOINT FootRight
        {
          OFFSET -4.320050 -1.210023 -11.511093
          CHANNELS 3 Zrotation Xrotation Yrotation
          End Site
          {
            OFFSET 0 0 0
          }
        }
      }
    }
  }
}
MOTION
Frames: 16
Frame Time: 0.033333
5.260013 176.248211 341.349411 -0.000000 0.000000 28.195725 -0.000000 0.000000 -28.195725 -0.000000 0.000000 0.000000 -0.000000 0.000000 0.000000 0.000000 0.000000 0.000000 -0.000000 0.000000 0.000000 -0.000000 0.000000 0.000000 -0.000000 0.000000 0.000000 -0.000000 0.000000 0.000000 0.000000 0.000000 0.000000 0.000000 0.000000 0.000000 -0.000000 0.000000 0.000000 -0.000000 0.000000 0.000000 -0.000000 0.000000 0.000000 -0.000000 0.000000 0.000000 0.000000 0.000000 0.000000 0.000000 0.000000 0.000000 -0.000000 0.000000 -28.195725 -0.000000 0.000000 0.000000 -0.000000 0.000000 0.000000 0.000000 0.000000 0.000000 -0.000000 0.000000 -28.195725 -0.000000 0.000000 0.000000 -0.000000 0.000000 0.000000 0.000000 0.000000 0.000000
5.249690 176.257964 341.351597 -0.032441 -0.023672 28.034123 0.039761 0.005647 -28.034132 -0.000000 0.000000 0.000000 -0.000000 0.000000 0.000000 0.000000 0.000000 0.000000 -0.000000 0.000000 0.000000 -0.000000 0.000000 0.000000 -1.071745 -2.411567 0.118473 -1.001764 -0.852924 -0.576983 0.000000 0.000000 0.000000 0.000000 0.000000 0.000000 -0.000000 0.000000 0.000000 -0.000000 0.000000 0.000000 -3.663576 0.209282 0.212444 1.419377 -1.107342 -0.041337 0.000000 0.000000 0.000000 0.000000 0.000000 0.000000 0.039761 0.005647 -28.034132 -0.000000 0.000000 0.000000 -3.103493 6.324389 6.114070 0.000000 0.000000 0.000000 0.039761 0.005647 -28.034132 -0.000000 0.000000 0.000000 3.343437 -9.007707 4.598195 0.000000 0.000000 0.000000
5.232238 176.266537 341.352008 -0.073811 -0.041779 27.888252 0.084781 0.002402 -27.888281 -0.000000 0.000000 0.000000 -0.000000 0.000000 0.000000 0.000000 0.000000 0.000000 -0.000000 0.000000 0.000000 -0.770663 -1.060184 0.092925 -1.018852 -3.040576 0.092882 -2.299720 -2.133044 -1.056615 0.000000 0.000000 0.000000 0.000000 0.000000 0.000000 -0.000000 0.000000 0.000000 -0.958703 0.372072 0.224239 -5.749701 0.095616 0.133406 2.665744 -2.064703 -0.098696 0.000000 0.000000 0.000000 0.000000 0.000000 0.000000 0.084781 0.002402 -27.888281 -0.486522 -0.789061 -0.262102 -6.008262 11.660568 11.939360 0.000000 0.000000 0.000000 0.084781 0.002402 -27.888281 -0.000000 0.000000 0.000000 8.020209 -18.521356 10.458453 0.000000 0.000000 0.000000
5.207656 176.273928 341.350645 -0.124115 -0.054317 27.758008 0.135130 -0.009739 -27.758056 -0.000000 0.000000 0.000000 -0.000000 0.000000 0.000000 0.000000 0.000000 0.000000 -0.000000 0.000000 0.000000 -1.002936 -1.448177 0.115188 -1.177897 -3.688392 0.091005 -3.748469 -3.611410 -1.439308 0.000000 0.000000 0.000000 0.000000 0.000000 0.000000 -0.000000 0.000000 0.000000 -1.479789 0.487263 0.343337 -7.647547 0.269194 0.137187 3.673648 -2.893411 -0.151693 0.000000 0.000000 0.000000 0.000000 0.000000 0.000000 0.135130 -0.009739 -27.758056 -0.643003 -1.048966 -0.349304 -9.106797 14.800196 16.770784 0.000000 0.000000 0.000000 0.135130 -0.009739 -27.758056 -0.000000 0.000000 0.000000 13.388497 -26.583870 16.754709 0.000000 0.000000 0.000000
5.175945 176.280138 341.347506 -0.183361 -0.061280 27.643289 0.190863 -0.030788 -27.643336 -0.000000 0.000000 0.000000 -0.000000 0.000000 0.000000 0.000000 0.000000 0.000000 -0.000000 0.000000 0.000000 -1.133085 -1.740778 0.123594 -1.133008 -3.820864 0.073899 -5.224572 -5.109967 -1.718008 0.000000 0.000000 0.000000 0.000000 0.000000 0.000000 -0.768810 -0.431310 -0.056173 -1.259040 0.983372 0.531516 -8.901831 0.527618 0.110575 4.407406 -3.610301 -0.187812 0.000000 0.000000 0.000000 0.000000 0.000000 0.000000 0.190863 -0.030788 -27.643336 -0.735650 -1.211020 -0.403248 -11.916243 16.385751 20.663783 0.000000 0.000000 0.000000 0.190863 -0.030788 -27.643336 -0.000000 0.000000 0.000000 17.797933 -31.662185 21.713633 0.000000 0.000000 0.000000
5.137104 176.285167 341.342594 -0.251555 -0.062665 27.543989 0.252021 -0.060764 -27.543993 -0.000000 0.000000 0.000000 -0.000000 0.000000 0.000000 0.000000 0.000000 0.000000 -0.000000 0.000000 0.000000 -1.161078 -1.937744 0.119234 -0.890630 -3.456625 0.042628 -6.639850 -6.516597 -1.882268 0.000000 0.000000 0.000000 0.000000 0.000000 0.000000 -0.853166 -0.409963 -0.041368 -1.745568 0.978026 0.644639 -9.529328 0.870146 0.057402 4.850282 -4.228162 -0.199740 0.000000 0.000000 0.000000 0.000000 0.000000 0.000000 0.252021 -0.060764 -27.543993 -0.761700 -1.271402 -0.422054 -14.319367 16.618785 23.574766 0.000000 0.000000 0.000000 0.252021 -0.060764 -27.543993 -0.000000 0.000000 0.000000 19.487050 -33.344734 23.533617 0.000000 0.000000 0.000000
5.083544 176.296927 341.331567 -0.343256 -0.051853 27.417007 0.328578 -0.112028 -27.416841 -0.000000 0.000000 0.000000 -0.000000 0.000000 0.000000 0.000000 0.000000 0.000000 -0.000000 0.000000 0.000000 -1.134096 -2.049893 0.109803 0.160566 -1.789174 -0.107272 -8.682590 -7.501115 -1.526950 0.000000 0.000000 0.000000 0.000000 0.000000 0.000000 -0.873309 -0.277782 0.001677 -2.563479 0.749419 0.776027 -9.348542 1.359829 -0.054902 4.890800 -4.458137 -0.132809 0.000000 0.000000 0.000000 0.000000 0.000000 0.000000 0.328578 -0.112028 -27.416841 -0.725553 -1.186560 -0.395710 -17.932901 15.979916 27.589554 0.000000 0.000000 0.000000 0.328578 -0.112028 -27.416841 -0.000000 0.000000 0.000000 17.631009 -31.563616 21.339138 0.000000 0.000000 0.000000
5.027038 176.304026 341.322447 -0.441720 -0.040045 27.328635 0.410804 -0.167215 -27.328190 -0.000000 0.000000 0.000000 -0.000000 0.000000 0.000000 0.000000 0.000000 0.000000 -0.714632 0.671261 -0.078817 -0.217805 -2.773940 0.151992 1.258666 -0.191120 -0.315640 -11.121052 -10.653167 -1.940713 0.000000 0.000000 0.000000 0.000000 0.000000 0.000000 -0.870853 -0.094294 0.058453 -3.298306 0.418501 0.858325 -8.523883 2.406564 -0.195400 4.890297 -6.026779 -0.143789 0.000000 0.000000 0.000000 0.000000 0.000000 0.000000 0.410804 -0.167215 -27.328190 -0.532034 -0.894979 -0.294687 -20.484772 13.713438 29.616981 0.000000 0.000000 0.000000 0.410804 -0.167215 -27.328190 -0.000000 0.000000 0.000000 12.952612 -26.125284 15.900525 0.000000 0.000000 0.000000
4.968025 176.303473 341.315318 -0.565141 -0.036991 27.298996 0.519166 -0.226320 -27.298153 -0.000000 0.000000 0.000000 -0.000000 0.000000 0.000000 0.000000 0.000000 0.000000 -0.920248 0.768669 -0.093484 0.247336 -2.830637 0.132738 2.007703 1.638156 -0.454441 -11.942811 -11.471439 -1.786796 0.000000 0.000000 0.000000 0.000000 0.000000 0.000000 -0.935472 -0.003407 0.093215 -3.692115 0.271420 0.912027 -7.522038 2.557284 -0.325440 4.684108 -6.244855 -0.144095 0.000000 0.000000 0.000000 0.000000 0.000000 0.000000 0.519166 -0.226320 -27.298153 -0.407653 -0.804909 -0.253594 -19.590921 8.635175 26.516603 0.000000 0.000000 0.000000 0.519166 -0.226320 -27.298153 -0.000000 0.000000 0.000000 7.434428 -17.555564 9.256890 0.000000 0.000000 0.000000
4.938221 176.296262 341.312281 -0.652969 -0.025122 27.288034 0.591824 -0.277032 -27.286746 -0.000000 0.000000 0.000000 0.652474 0.474627 0.183401 0.000000 0.000000 0.000000 -1.087613 0.882564 -0.107446 0.785129 -2.772716 0.102603 2.546602 2.969821 -0.584736 -12.188953 -12.050735 -1.660966 0.000000 0.000000 0.000000 0.000000 0.000000 0.000000 -0.955777 0.050931 0.112188 -3.952550 0.267203 0.954140 -6.205702 2.100954 -0.468273 3.820836 -5.244023 -0.062407 0.000000 0.000000 0.000000 0.000000 0.000000 0.000000 1.407871 -0.592324 -27.171171 -0.869945 -0.092188 -0.110083 -19.101522 4.719157 23.701312 0.000000 0.000000 0.000000 0.591824 -0.277032 -27.286746 -0.000000 0.000000 0.000000 2.813289 -7.684883 3.285233 0.000000 0.000000 0.000000
4.905100 176.290338 341.300909 -0.664555 0.010691 27.363244 0.585291 -0.314938 -27.361574 -0.000000 0.000000 0.000000 -0.000000 0.000000 0.000000 0.000000 0.000000 0.000000 -1.180498 0.939258 -0.114626 1.246838 -2.525463 0.068913 2.412548 4.624173 -0.518006 -10.394960 -10.476352 -1.001442 0.000000 0.000000 0.000000 0.000000 0.000000 0.000000 -0.978819 0.207053 0.163175 -4.031167 0.050033 0.908137 -4.983594 2.182893 -0.568453 2.371129 -4.566321 0.108460 0.000000 0.000000 0.000000 0.000000 0.000000 0.000000 1.477655 -0.523813 -27.226634 -0.889026 -0.222570 -0.130134 -17.875115 2.137337 21.108947 0.000000 0.000000 0.000000 0.585291 -0.314938 -27.361574 -0.000000 0.000000 0.000000 0.610103 -1.762580 0.597422 0.000000 0.000000 0.000000
4.837861 176.277818 341.296725 -0.644971 0.043778 27.488284 0.551958 -0.336526 -27.486417 -0.000000 0.000000 0.000000 -0.000000 0.000000 0.000000 0.000000 0.000000 0.000000 -1.084804 0.961467 -0.112547 1.341767 -2.177242 0.049689 1.796725 4.757853 -0.338039 -7.658255 -7.769510 -0.348533 0.000000 0.000000 0.000000 0.000000 0.000000 0.000000 -0.944489 0.417520 0.225129 -4.087862 -0.294317 0.822963 -3.940243 2.439704 -0.639832 1.336413 -4.682282 0.164974 0.000000 0.000000 0.000000 0.000000 0.000000 0.000000 1.521299 -0.376560 -27.328848 -0.879505 -0.409479 -0.154680 -20.681640 4.626350 25.588248 0.000000 0.000000 0.000000 0.551958 -0.336526 -27.486417 -0.000000 0.000000 0.000000 1.498321 -4.243111 1.592105 0.000000 0.000000 0.000000
4.743183 176.271953 341.309216 -0.618393 0.071047 27.546901 0.515438 -0.348976 -27.544948 -0.000000 0.000000 0.000000 -0.000000 0.000000 0.000000 0.000000 0.000000 0.000000 -0.753435 0.939223 -0.098803 0.804880 -1.823730 0.072503 1.126814 3.597362 -0.155353 -5.774748 -3.648015 0.452422 0.000000 0.000000 0.000000 0.000000 0.000000 0.000000 -1.002572 0.655540 0.305396 -3.918906 -0.702703 0.687616 -3.162415 2.424650 -0.654501 0.027245 -4.502303 0.213088 0.000000 0.000000 0.000000 0.000000 0.000000 0.000000 1.595320 -0.186081 -27.357886 -0.714042 -1.440958 -0.346888 -19.912670 6.372871 25.241144 0.000000 0.000000 0.000000 0.515438 -0.348976 -27.544948 -0.000000 0.000000 0.000000 3.742470 -9.927575 4.243370 0.000000 0.000000 0.000000
4.603867 176.256166 341.316992 -0.477059 0.110246 27.666721 0.371328 -0.319148 -27.665227 -0.000000 0.000000 0.000000 -0.000000 0.000000 0.000000 0.000000 0.000000 0.000000 -0.464179 0.796860 -0.077916 0.465307 -0.796202 0.084377 -0.526429 2.233119 0.255596 -3.105634 0.163341 0.927579 0.000000 0.000000 0.000000 0.000000 0.000000 0.000000 -0.646867 0.779707 0.305533 -4.184249 -1.170125 0.624707 -2.808091 2.232019 -0.591353 -0.305572 -3.363994 0.286931 0.000000 0.000000 0.000000 0.000000 0.000000 0.000000 1.569616 0.041566 -27.448911 -0.710419 -2.034385 -0.461044 -22.856379 11.633618 30.875500 0.000000 0.000000 0.000000 1.214953 -0.858232 -27.705830 -1.072182 -0.735663 -0.054358 4.841382 -11.412541 5.554674 0.000000 0.000000 0.000000
4.342431 176.208692 341.302396 -0.294837 0.105607 28.014220 0.210690 -0.231714 -28.013523 -0.000000 0.000000 0.000000 -0.000000 0.000000 0.000000 0.000000 0.000000 0.000000 -0.384288 0.865908 -0.079834 0.385538 -0.865352 0.085649 -2.487885 0.195446 0.631593 -0.767235 3.535360 0.966215 0.000000 0.000000 0.000000 0.000000 0.000000 0.000000 -0.210692 0.881087 0.289188 -4.312607 -1.827763 0.517914 -2.896422 2.493325 -0.447317 -0.628529 -3.208320 0.268205 0.000000 0.000000 0.000000 0.000000 0.000000 0.000000 1.597785 0.269382 -27.761627 -0.747700 -2.537600 -0.557645 -27.254336 17.681521 38.271322 0.000000 0.000000 0.000000 1.508407 -1.016894 -28.064366 -1.435974 -0.849418 -0.019773 5.387224 -12.800996 6.626330 0.000000 0.000000 0.000000
4.026304 176.127860 341.342178 -0.223883 -0.001818 28.030488 0.198476 -0.103607 -28.030312 -0.000000 0.000000 0.000000 0.769922 -0.602258 -0.194364 0.000000 0.000000 0.000000 -0.463404 0.707993 -0.071539 0.464323 -0.707390 0.077269 -3.341827 -0.891400 0.758846 1.327693 8.251503 1.521389 0.000000 0.000000 0.000000 0.000000 0.000000 0.000000 0.455195 0.821896 0.199142 -4.602042 -2.302085 0.486709 -3.785754 2.804025 -0.223085 0.270798 -2.287688 0.303827 0.000000 0.000000 0.000000 0.000000 0.000000 0.000000 1.858688 0.489156 -27.734290 -0.764026 -3.016890 -0.638529 -32.373456 20.585083 45.324792 0.000000 0.000000 0.000000 2.144955 -1.026018 -28.057353 -2.008755 -1.109071 -0.036252 5.600034 -13.277372 7.295783 0.000000 0.000000 0.000000
